#tb 0: 8341/125000
#tb 1: 1/22050
0,          0,          0,        1,   414720, 0x2580d574
1,          0,          0,     1462,     5848, 0xea04292b
1,       1462,       1462,     1472,     5888, 0x0e59e942
0,          1,          1,        1,   414720, 0x97f55cd3
1,       2934,       2934,     1472,     5888, 0x56d480f6
0,          2,          2,        1,   414720, 0x9408fb63
1,       4406,       4406,     1472,     5888, 0xcb560b22
0,          3,          3,        1,   414720, 0x7e53c155
1,       5878,       5878,     1472,     5888, 0xca26865b
0,          4,          4,        1,   414720, 0xd8570262
1,       7350,       7350,     1472,     5888, 0xa434392f
0,          5,          5,        1,   414720, 0x9dc72ed5
1,       8822,       8822,     1472,     5888, 0xa0615fe4
0,          6,          6,        1,   414720, 0xf7d33211
1,      10294,      10294,     1472,     5888, 0x85b241cd
0,          7,          7,        1,   414720, 0x95935e3b
1,      11766,      11766,     1472,     5888, 0x2c417a43
0,          8,          8,        1,   414720, 0x62b1cdc5
1,      13238,      13238,     1472,     5888, 0x2d5ed665
0,          9,          9,        1,   414720, 0x971f500a
1,      14710,      14710,     1472,     5888, 0x37267a2d
0,         10,         10,        1,   414720, 0x05f82b6c
1,      16182,      16182,     1472,     5888, 0x1f803c67
0,         11,         11,        1,   414720, 0x7713e3cb
1,      17654,      17654,     1472,     5888, 0xfb7940ef
0,         12,         12,        1,   414720, 0x3170c2f0
1,      19126,      19126,     1472,     5888, 0x1a5371e8
0,         13,         13,        1,   414720, 0x8d818956
1,      20598,      20598,     1472,     5888, 0x37e29b21
0,         14,         14,        1,   414720, 0x16775d71
1,      22070,      22070,     1462,     5848, 0x70065769
0,         15,         15,        1,   414720, 0x63016ce1
1,      23532,      23532,     1472,     5888, 0xaf624f3d
0,         16,         16,        1,   414720, 0x2f94792c
1,      25004,      25004,     1472,     5888, 0x8f5e5b57
0,         17,         17,        1,   414720, 0x37f67725
1,      26476,      26476,     1472,     5888, 0x93545968
0,         18,         18,        1,   414720, 0xeb95adb1
1,      27948,      27948,     1472,     5888, 0x915f268f
0,         19,         19,        1,   414720, 0xbf32f6df
1,      29420,      29420,     1472,     5888, 0x9cd48ac4
0,         20,         20,        1,   414720, 0x242f4d09
1,      30892,      30892,     1472,     5888, 0x812c8e13
0,         21,         21,        1,   414720, 0x28a2a3b9
1,      32364,      32364,     1472,     5888, 0xe794a2a7
0,         22,         22,        1,   414720, 0x895de0a6
1,      33836,      33836,     1472,     5888, 0x4a056e4b
0,         23,         23,        1,   414720, 0xd3b46447
1,      35308,      35308,     1472,     5888, 0xa3589992
0,         24,         24,        1,   414720, 0x3bbfb7d1
1,      36780,      36780,     1472,     5888, 0x19ea7ec5
0,         25,         25,        1,   414720, 0x0a5ee9ad
1,      38252,      38252,     1472,     5888, 0x422d5097
0,         26,         26,        1,   414720, 0xaabac502
1,      39724,      39724,     1472,     5888, 0xc9fd963f
0,         27,         27,        1,   414720, 0x0951779d
1,      41196,      41196,     1472,     5888, 0xc556a5ea
0,         28,         28,        1,   414720, 0x150e2073
1,      42668,      42668,     1472,     5888, 0x51557e0f
0,         29,         29,        1,   414720, 0xb86d87ae
1,      44140,      44140,     1462,     5848, 0x4903ad21
0,         30,         30,        1,   414720, 0x135411da
1,      45602,      45602,     1472,     5888, 0xb1c85e85
0,         31,         31,        1,   414720, 0x9c8fcda5
1,      47074,      47074,     1472,     5888, 0x68963d65
0,         32,         32,        1,   414720, 0xb7ba838e
1,      48546,      48546,     1472,     5888, 0x62a3124e
0,         33,         33,        1,   414720, 0x7ef869e1
1,      50018,      50018,     1472,     5888, 0x4ff1878f
0,         34,         34,        1,   414720, 0xf9764d47
1,      51490,      51490,     1472,     5888, 0x8b09ac18
0,         35,         35,        1,   414720, 0xe6c72872
1,      52962,      52962,     1472,     5888, 0x67d85338
0,         36,         36,        1,   414720, 0xb95b73b8
1,      54434,      54434,     1472,     5888, 0x82eca0a6
0,         37,         37,        1,   414720, 0xa19e3221
1,      55906,      55906,     1472,     5888, 0x81a17eb8
0,         38,         38,        1,   414720, 0xc0be27cd
1,      57378,      57378,     1472,     5888, 0x7108478c
0,         39,         39,        1,   414720, 0xe97cd1a9
1,      58850,      58850,     1472,     5888, 0xbfc18b09
0,         40,         40,        1,   414720, 0xb6524a34
1,      60322,      60322,     1472,     5888, 0xad93711f
0,         41,         41,        1,   414720, 0x61a1607b
1,      61794,      61794,     1472,     5888, 0xf8d25e39
0,         42,         42,        1,   414720, 0x1dd9c606
1,      63266,      63266,     1472,     5888, 0x41edd04e
0,         43,         43,        1,   414720, 0xe2e736fa
1,      64738,      64738,     1472,     5888, 0xa6557ee2
0,         44,         44,        1,   414720, 0x25b922d9
1,      66210,      66210,     1462,     5848, 0xc14d5456
0,         45,         45,        1,   414720, 0xbc023b36
1,      67672,      67672,     1472,     5888, 0x20a7821f
0,         46,         46,        1,   414720, 0x39bb5cdf
1,      69144,      69144,     1472,     5888, 0x9f1a8f9d
0,         47,         47,        1,   414720, 0xf83bfc4f
1,      70616,      70616,     1472,     5888, 0x2f3c6cc8
0,         48,         48,        1,   414720, 0x3eae7f36
1,      72088,      72088,     1472,     5888, 0x757c894a
0,         49,         49,        1,   414720, 0x8cf80c32
1,      73560,      73560,     1472,     5888, 0x483e98bb
0,         50,         50,        1,   414720, 0xbc576c03
1,      75032,      75032,     1472,     5888, 0x84289c75
0,         51,         51,        1,   414720, 0x28b79ab1
1,      76504,      76504,     1472,     5888, 0xf79d5a91
0,         52,         52,        1,   414720, 0x15da1138
1,      77976,      77976,     1472,     5888, 0x395b5228
0,         53,         53,        1,   414720, 0x345ff676
1,      79448,      79448,     1472,     5888, 0x9c937a14
0,         54,         54,        1,   414720, 0x0108f909
1,      80920,      80920,     1472,     5888, 0x40c169cf
0,         55,         55,        1,   414720, 0x57459616
1,      82392,      82392,     1472,     5888, 0x3e7f99b0
0,         56,         56,        1,   414720, 0x2f497782
1,      83864,      83864,     1472,     5888, 0xd4de993e
0,         57,         57,        1,   414720, 0xb72b4f79
1,      85336,      85336,     1472,     5888, 0xae856b09
0,         58,         58,        1,   414720, 0x2bfd1967
1,      86808,      86808,     1472,     5888, 0xa2369c95
0,         59,         59,        1,   414720, 0x974a99cd
1,      88280,      88280,     1462,     5848, 0x992d516b
0,         60,         60,        1,   414720, 0x5f5f4129
1,      89742,      89742,     1472,     5888, 0xcd785ba9
0,         61,         61,        1,   414720, 0x51ad9df4
1,      91214,      91214,     1472,     5888, 0x55ea3bce
0,         62,         62,        1,   414720, 0xd6e5c16c
1,      92686,      92686,     1472,     5888, 0xf06d4bbf
0,         63,         63,        1,   414720, 0xd8751bda
1,      94158,      94158,     1472,     5888, 0x2a9d4c1a
0,         64,         64,        1,   414720, 0x216ed6f3
1,      95630,      95630,     1472,     5888, 0xd5e348a3
0,         65,         65,        1,   414720, 0x63a0a67d
1,      97102,      97102,     1472,     5888, 0x6431a24c
0,         66,         66,        1,   414720, 0xe4f4eb0f
1,      98574,      98574,     1472,     5888, 0x41f9908c
0,         67,         67,        1,   414720, 0xa1665ef8
1,     100046,     100046,     1472,     5888, 0x0ed99656
0,         68,         68,        1,   414720, 0xc3116dfd
1,     101518,     101518,     1472,     5888, 0x635a6392
0,         69,         69,        1,   414720, 0x3213fd70
1,     102990,     102990,     1472,     5888, 0x690c750c
0,         70,         70,        1,   414720, 0x2af76048
1,     104462,     104462,     1472,     5888, 0xf9d97b23
0,         71,         71,        1,   414720, 0x3570085d
1,     105934,     105934,     1472,     5888, 0x75e1606b
0,         72,         72,        1,   414720, 0x2a7c3c39
1,     107406,     107406,     1472,     5888, 0x1bcb43b0
0,         73,         73,        1,   414720, 0xd8a6ba7e
1,     108878,     108878,     1472,     5888, 0x48c295cb
0,         74,         74,        1,   414720, 0x48107b4d
1,     110350,     110350,     1462,     5848, 0xe47f7b5d
0,         75,         75,        1,   414720, 0x653a0936
1,     111812,     111812,     1472,     5888, 0x20be7f3e
0,         76,         76,        1,   414720, 0xf68c77ab
1,     113284,     113284,     1472,     5888, 0x8c2428c4
0,         77,         77,        1,   414720, 0xa5ecde84
1,     114756,     114756,     1472,     5888, 0x851379af
0,         78,         78,        1,   414720, 0xaec33ca1
1,     116228,     116228,     1472,     5888, 0x5916647d
0,         79,         79,        1,   414720, 0x26e68740
1,     117700,     117700,     1472,     5888, 0xef9c6281
0,         80,         80,        1,   414720, 0xac09bfa5
1,     119172,     119172,     1472,     5888, 0x49660d32
0,         81,         81,        1,   414720, 0xed5111b2
1,     120644,     120644,     1472,     5888, 0x62cf36a1
0,         82,         82,        1,   414720, 0x38041c98
1,     122116,     122116,     1472,     5888, 0x56dff39c
0,         83,         83,        1,   414720, 0x76fbde1d
1,     123588,     123588,     1472,     5888, 0x4e6b5b02
0,         84,         84,        1,   414720, 0x3ae64b7d
1,     125060,     125060,     1472,     5888, 0xb8697067
0,         85,         85,        1,   414720, 0xb05f4da2
1,     126532,     126532,     1472,     5888, 0xcb4e2706
0,         86,         86,        1,   414720, 0x65769088
1,     128004,     128004,     1472,     5888, 0x6eaa9669
0,         87,         87,        1,   414720, 0xbc45ba59
1,     129476,     129476,     1472,     5888, 0xfd9d7dba
0,         88,         88,        1,   414720, 0x8c893436
1,     130948,     130948,     1472,     5888, 0xfe137923
0,         89,         89,        1,   414720, 0x1d5ebe7f
1,     132420,     132420,     1462,     5848, 0x1931296f
0,         90,         90,        1,   414720, 0xa9cd5a53
1,     133882,     133882,     1472,     5888, 0xa09a7c03
0,         91,         91,        1,   414720, 0xc69e1fb0
1,     135354,     135354,     1472,     5888, 0xded9802d
0,         92,         92,        1,   414720, 0xb28a77ec
1,     136826,     136826,     1472,     5888, 0x9f6723b7
0,         93,         93,        1,   414720, 0x834f1219
1,     138298,     138298,     1472,     5888, 0x3ad02476
0,         94,         94,        1,   414720, 0xba34c848
1,     139770,     139770,     1472,     5888, 0xa1647e32
0,         95,         95,        1,   414720, 0x80e590c1
1,     141242,     141242,     1472,     5888, 0x728672da
0,         96,         96,        1,   414720, 0x7146dc31
1,     142714,     142714,     1472,     5888, 0x9c098090
0,         97,         97,        1,   414720, 0x05929a5f
1,     144186,     144186,     1472,     5888, 0x32a65ea3
0,         98,         98,        1,   414720, 0x721708c5
1,     145658,     145658,     1472,     5888, 0xdde141d5
0,         99,         99,        1,   414720, 0x4aa83cbe
1,     147130,     147130,     1472,     5888, 0x816c5fb4
0,        100,        100,        1,   414720, 0x221d799f
1,     148602,     148602,     1472,     5888, 0x75e17581
0,        101,        101,        1,   414720, 0xe9e72bec
1,     150074,     150074,     1472,     5888, 0x59035469
0,        102,        102,        1,   414720, 0xb6a3385d
1,     151546,     151546,     1472,     5888, 0x20d340cd
0,        103,        103,        1,   414720, 0x795a3362
1,     153018,     153018,     1472,     5888, 0xa89a8790
0,        104,        104,        1,   414720, 0x770b58d9
1,     154490,     154490,     1462,     5848, 0x12b74c34
0,        105,        105,        1,   414720, 0xb5563ce4
1,     155952,     155952,     1472,     5888, 0xcd3b3bef
0,        106,        106,        1,   414720, 0x0c1a00cc
1,     157424,     157424,     1472,     5888, 0xe5c44bf3
0,        107,        107,        1,   414720, 0xcbd467fd
1,     158896,     158896,     1472,     5888, 0xb82c4fa4
0,        108,        108,        1,   414720, 0x3bccec29
1,     160368,     160368,     1472,     5888, 0x05b2443a
0,        109,        109,        1,   414720, 0x92d78db7
1,     161840,     161840,     1472,     5888, 0x78028172
1,     163312,     163312,     1472,     5888, 0xdfcac19a
1,     164784,     164784,     1472,     5888, 0x0761a0b9
1,     166256,     166256,     1472,     5888, 0x77d88607
1,     167728,     167728,     1472,     5888, 0xdd7f4d77
1,     169200,     169200,     1472,     5888, 0x366bf58a
1,     170672,     170672,     1472,     5888, 0x9a3d59b5
1,     172144,     172144,     1472,     5888, 0x16cb777f
1,     173616,     173616,     1472,     5888, 0x1d4afe64
1,     175088,     175088,     1472,     5888, 0xc0fe1e73
1,     176560,     176560,     1462,     5848, 0xcceb69c8
1,     178022,     178022,     1472,     5888, 0x89449643
1,     179494,     179494,     1472,     5888, 0x5fe595b7
1,     180966,     180966,     1472,     5888, 0x400a8c77
